<svg width="254" height="93" viewBox="0 0 254 93" fill="none" xmlns="http://www.w3.org/2000/svg">
<path d="M58.0469 68.5625C56.1094 68.3125 54.2344 68.1406 52.4219 68.0469C50.6406 67.9531 48.8281 67.9062 46.9844 67.9062C42.0156 67.9062 36.9219 68.3906 31.7031 69.3594C31.8906 68.6094 32.0938 67.9531 32.3125 67.3906C32.5625 66.7969 32.7812 66.1562 32.9688 65.4688C33.1562 64.75 33.3125 63.9219 33.4375 62.9844C33.5625 62.0469 33.625 60.8438 33.625 59.375C33.625 57.875 33.5156 56.4531 33.2969 55.1094C33.0781 53.7344 32.75 52.5312 32.3125 51.5C31.875 50.4375 31.3281 49.5938 30.6719 48.9688C30.0469 48.3438 29.3125 48.0312 28.4688 48.0312C27.5312 48.0312 26.7344 48.3125 26.0781 48.875C25.4531 49.4375 24.9375 50.2031 24.5312 51.1719C24.1562 52.1406 23.875 53.25 23.6875 54.5C23.5312 55.75 23.4531 57.0781 23.4531 58.4844C23.4531 59.8906 23.5312 61.1094 23.6875 62.1406C23.875 63.1406 24.0781 64.0156 24.2969 64.7656C24.5469 65.5156 24.7812 66.1875 25 66.7812C25.2188 67.3438 25.375 67.9062 25.4688 68.4688C23.3125 68.2188 21.1875 68.0312 19.0938 67.9062C17.0312 67.7812 14.9688 67.7188 12.9062 67.7188C10.8438 67.7188 8.76562 67.7812 6.67188 67.9062C4.60938 68.0312 2.46875 68.2188 0.25 68.4688C2.1875 62.8438 3.875 57.2656 5.3125 51.7344C6.78125 46.2031 8.03125 40.6406 9.0625 35.0469C10.0938 29.4531 10.9219 23.7969 11.5469 18.0781C12.2031 12.3594 12.6875 6.5 13 0.5C15.3125 0.8125 17.8438 1.04688 20.5938 1.20312C23.375 1.32813 26.2188 1.39062 29.125 1.39062C31.5938 1.39062 33.9844 1.32813 36.2969 1.20312C38.6406 1.07812 40.7969 0.8125 42.7656 0.40625C42.9844 6.375 43.5469 12.25 44.4531 18.0312C45.3594 23.8125 46.4844 29.5469 47.8281 35.2344C49.2031 40.8906 50.7656 46.5 52.5156 52.0625C54.2656 57.5938 56.1094 63.0938 58.0469 68.5625ZM31.7969 32.1875C31.7344 31.5938 31.5469 30.7188 31.2344 29.5625C30.9531 28.5625 30.5312 27.25 29.9688 25.625C29.4062 23.9688 28.5781 21.8438 27.4844 19.25C27.2344 20.875 26.9531 22.3281 26.6406 23.6094C26.3281 24.8594 26.0312 26 25.75 27.0312C25.4688 28.0312 25.2188 28.9531 25 29.7969C24.8125 30.6406 24.7188 31.4375 24.7188 32.1875C24.7188 33.75 25.0781 34.9688 25.7969 35.8438C26.5469 36.6875 27.375 37.1094 28.2812 37.1094C29.25 37.1094 30.0625 36.6406 30.7188 35.7031C31.375 34.7656 31.7344 33.5938 31.7969 32.1875ZM105.578 14.1406C105.234 15.4531 104.938 17.0625 104.688 18.9688C104.469 20.8438 104.266 22.9062 104.078 25.1562C103.891 27.375 103.734 29.6875 103.609 32.0938C103.516 34.5 103.422 36.8594 103.328 39.1719C103.141 44.6094 103.031 50.375 103 56.4688C103 59.6562 102.797 62.7812 102.391 65.8438C102.016 68.875 101.391 71.7344 100.516 74.4219C99.6719 77.1094 98.5625 79.5938 97.1875 81.875C95.8125 84.1562 94.1406 86.1094 92.1719 87.7344C90.2344 89.3594 87.9844 90.625 85.4219 91.5312C82.8594 92.4688 79.9531 92.9375 76.7031 92.9375C73.6719 92.9375 71.0469 92.625 68.8281 92C66.6094 91.375 64.7656 90.4844 63.2969 89.3281C61.8594 88.2031 60.7812 86.8438 60.0625 85.25C59.375 83.6875 59.0312 81.9375 59.0312 80C59.0312 78.0938 59.3594 76.375 60.0156 74.8438C60.6719 73.3125 61.5312 72 62.5938 70.9062C63.6562 69.8438 64.8438 69.0312 66.1562 68.4688C67.5 67.9062 68.8594 67.625 70.2344 67.625C72.0156 67.625 73.6875 68.125 75.25 69.125C76.8125 70.125 78 71.7031 78.8125 73.8594C78.4375 73.6094 77.9844 73.4844 77.4531 73.4844C76.7344 73.4844 76.0625 73.7656 75.4375 74.3281C74.8125 74.9219 74.5 75.625 74.5 76.4375C74.5 76.9062 74.5781 77.2969 74.7344 77.6094C74.9219 77.9531 75.1562 78.2188 75.4375 78.4062C75.7188 78.5938 76.0156 78.7188 76.3281 78.7812C76.6719 78.875 76.9844 78.9219 77.2656 78.9219C77.6094 78.9219 78.0781 78.8594 78.6719 78.7344C79.2969 78.6406 79.9688 78.3438 80.6875 77.8438C81.4062 77.3438 82.125 76.5781 82.8438 75.5469C83.5625 74.5156 84.2188 73.0938 84.8125 71.2812C85.4062 69.4688 85.875 67.1719 86.2188 64.3906C86.5938 61.6094 86.7812 58.2344 86.7812 54.2656C86.1562 57.0469 85.375 59.2344 84.4375 60.8281C83.5 62.4219 82.5 63.625 81.4375 64.4375C80.375 65.2188 79.2812 65.7031 78.1562 65.8906C77.0625 66.0781 76.0312 66.1719 75.0625 66.1719C74.3125 66.1719 73.3594 66.0469 72.2031 65.7969C71.0469 65.5156 69.8125 65.0469 68.5 64.3906C67.2188 63.7031 65.9062 62.7812 64.5625 61.625C63.25 60.4375 62.0625 58.9531 61 57.1719C59.9375 55.3594 59.0625 53.2031 58.375 50.7031C57.7188 48.1719 57.3906 45.2031 57.3906 41.7969C57.3906 36.5469 57.9219 32.1094 58.9844 28.4844C60.0781 24.8594 61.4688 21.9375 63.1562 19.7188C64.875 17.4688 66.7656 15.8594 68.8281 14.8906C70.8906 13.8906 72.9062 13.3906 74.875 13.3906C76.2812 13.3906 77.5625 13.625 78.7188 14.0938C79.875 14.5312 80.9219 15.125 81.8594 15.875C82.7969 16.625 83.625 17.4688 84.3438 18.4062C85.0625 19.3125 85.7031 20.2344 86.2656 21.1719C86.0781 19.7969 85.8438 18.4219 85.5625 17.0469C85.3125 15.6719 85.0156 14.2812 84.6719 12.875C85.4531 13.2188 86.4219 13.5312 87.5781 13.8125C88.5781 14.0625 89.8281 14.2812 91.3281 14.4688C92.8281 14.625 94.6406 14.7031 96.7656 14.7031C99.2656 14.7031 102.203 14.5156 105.578 14.1406ZM85.6094 37.6719C85.6094 36.7969 85.5469 35.75 85.4219 34.5312C85.2969 33.2812 85.0625 32.0938 84.7188 30.9688C84.375 29.8125 83.8906 28.8281 83.2656 28.0156C82.6719 27.2031 81.8906 26.7969 80.9219 26.7969C80.2031 26.7969 79.5469 27.2188 78.9531 28.0625C78.3594 28.875 77.8438 29.875 77.4062 31.0625C77 32.2188 76.6719 33.4219 76.4219 34.6719C76.2031 35.9219 76.0938 36.9844 76.0938 37.8594C76.0938 39.3594 76.1719 40.8906 76.3281 42.4531C76.4844 44.0156 76.7344 45.4375 77.0781 46.7188C77.4531 47.9688 77.9062 49 78.4375 49.8125C79 50.625 79.6562 51.0312 80.4062 51.0312C81.2188 51.0312 81.9375 50.8438 82.5625 50.4688C83.2188 50.0625 83.7656 49.5312 84.2031 48.875C84.6719 48.1875 85.0156 47.4062 85.2344 46.5312C85.4844 45.6562 85.6094 44.7188 85.6094 43.7188V37.6719ZM149.922 24.4062C149.922 26.75 149.578 29.0312 148.891 31.25C148.234 33.4688 147.062 35.4375 145.375 37.1562C143.688 38.875 141.406 40.25 138.531 41.2812C135.688 42.3125 132.062 42.8281 127.656 42.8281C127.781 44.3594 128.094 45.6406 128.594 46.6719C129.125 47.7031 129.75 48.5312 130.469 49.1562C131.188 49.7812 131.953 50.25 132.766 50.5625C133.578 50.875 134.328 51.0938 135.016 51.2188C135.703 51.3438 136.281 51.4062 136.75 51.4062C137.219 51.4062 137.453 51.4062 137.453 51.4062C139.391 51.1875 141.125 50.6875 142.656 49.9062C143.312 49.5938 143.953 49.2031 144.578 48.7344C145.203 48.2344 145.766 47.6562 146.266 47C146.797 46.3125 147.219 45.5469 147.531 44.7031C147.875 43.8281 148.078 42.8281 148.141 41.7031C148.953 43.7344 149.516 45.6406 149.828 47.4219C150.172 49.1719 150.344 50.8125 150.344 52.3438C150.344 55.1562 149.828 57.75 148.797 60.125C147.797 62.4688 146.406 64.5 144.625 66.2188C142.844 67.9375 140.719 69.2656 138.25 70.2031C135.812 71.1719 133.156 71.6562 130.281 71.6562C127.469 71.6562 124.75 71.1719 122.125 70.2031C119.531 69.2344 117.219 67.7031 115.188 65.6094C113.188 63.4844 111.578 60.7344 110.359 57.3594C109.172 53.9844 108.578 49.8906 108.578 45.0781C108.578 39.8594 109.328 35.2344 110.828 31.2031C112.328 27.1719 114.344 23.7969 116.875 21.0781C119.406 18.3281 122.328 16.25 125.641 14.8438C128.984 13.4062 132.484 12.6875 136.141 12.6875C137.953 12.6875 139.688 12.8906 141.344 13.2969C143.031 13.7031 144.5 14.375 145.75 15.3125C147.031 16.25 148.047 17.4688 148.797 18.9688C149.547 20.4375 149.922 22.25 149.922 24.4062ZM127.469 35.0938C128.344 35.0625 129.359 34.8906 130.516 34.5781C131.672 34.2344 132.766 33.7656 133.797 33.1719C134.828 32.5781 135.688 31.8438 136.375 30.9688C137.094 30.0938 137.453 29.0938 137.453 27.9688C137.453 27.25 137.203 26.6719 136.703 26.2344C136.203 25.7969 135.562 25.5781 134.781 25.5781C133.688 25.5781 132.703 25.8906 131.828 26.5156C130.984 27.1406 130.25 27.9219 129.625 28.8594C129.031 29.7969 128.547 30.8281 128.172 31.9531C127.797 33.0781 127.562 34.125 127.469 35.0938ZM202.703 68.9375C201.734 68.7812 200.672 68.6719 199.516 68.6094C198.359 68.5781 197.156 68.5625 195.906 68.5625C194.406 68.5625 192.875 68.5938 191.312 68.6562C189.781 68.75 188.281 68.8594 186.812 68.9844C185.344 69.1094 183.953 69.25 182.641 69.4062C181.328 69.5625 180.188 69.7031 179.219 69.8281C180.562 65.2969 181.594 60.4531 182.312 55.2969C183.062 50.1406 183.438 44.4219 183.438 38.1406C183.438 37.6719 183.422 37.0469 183.391 36.2656C183.391 35.4844 183.359 34.6406 183.297 33.7344C183.234 32.8281 183.125 31.9219 182.969 31.0156C182.844 30.0781 182.641 29.2344 182.359 28.4844C182.109 27.7344 181.781 27.125 181.375 26.6562C180.969 26.1875 180.469 25.9531 179.875 25.9531C179 25.9531 178.141 26.2656 177.297 26.8906C176.484 27.5156 175.75 28.3438 175.094 29.375C174.469 30.4062 173.953 31.5938 173.547 32.9375C173.172 34.2812 172.984 35.6719 172.984 37.1094C172.984 39.7031 173.047 42.3438 173.172 45.0312C173.297 47.6875 173.5 50.3281 173.781 52.9531C174.062 55.5781 174.422 58.1562 174.859 60.6875C175.297 63.1875 175.844 65.5625 176.5 67.8125C175.969 67.7812 175.344 67.7344 174.625 67.6719C174 67.6406 173.266 67.6094 172.422 67.5781C171.578 67.5469 170.609 67.5312 169.516 67.5312C167.484 67.5312 165.141 67.625 162.484 67.8125C159.828 67.9688 156.953 68.2812 153.859 68.75C154.234 67 154.562 64.8594 154.844 62.3281C155.125 59.7969 155.359 57.0469 155.547 54.0781C155.734 51.1094 155.875 48.0156 155.969 44.7969C156.094 41.5469 156.156 38.3438 156.156 35.1875C156.156 32.8438 156.125 30.5469 156.062 28.2969C156 26.0469 155.906 23.9219 155.781 21.9219C155.688 19.9219 155.547 18.0781 155.359 16.3906C155.172 14.7031 154.953 13.25 154.703 12.0312C157.234 12.4688 159.578 12.7812 161.734 12.9688C163.891 13.125 165.844 13.2031 167.594 13.2031C168.719 13.2031 169.719 13.1875 170.594 13.1562C171.5 13.0938 172.266 13.0312 172.891 12.9688C173.641 12.875 174.297 12.7812 174.859 12.6875C174.672 13.6562 174.484 14.6875 174.297 15.7812C174.141 16.875 173.984 18.0625 173.828 19.3438C174.859 18.0312 175.953 16.8906 177.109 15.9219C178.266 14.9219 179.422 14.0938 180.578 13.4375C181.766 12.7812 182.938 12.2969 184.094 11.9844C185.25 11.6406 186.344 11.4688 187.375 11.4688C189.625 11.4688 191.562 11.9375 193.188 12.875C194.844 13.7812 196.203 15.2188 197.266 17.1875C198.359 19.1562 199.172 21.6719 199.703 24.7344C200.234 27.7969 200.5 31.4688 200.5 35.75C200.5 38.6875 200.5 41.6719 200.5 44.7031C200.531 47.7344 200.609 50.7031 200.734 53.6094C200.859 56.5156 201.078 59.2812 201.391 61.9062C201.703 64.5 202.141 66.8438 202.703 68.9375ZM253.984 14.1406C253.641 15.4531 253.344 17.0625 253.094 18.9688C252.875 20.8438 252.672 22.9062 252.484 25.1562C252.297 27.375 252.141 29.6875 252.016 32.0938C251.922 34.5 251.828 36.8594 251.734 39.1719C251.547 44.6094 251.438 50.375 251.406 56.4688C251.406 59.6562 251.203 62.7812 250.797 65.8438C250.422 68.875 249.797 71.7344 248.922 74.4219C248.078 77.1094 246.969 79.5938 245.594 81.875C244.219 84.1562 242.547 86.1094 240.578 87.7344C238.641 89.3594 236.391 90.625 233.828 91.5312C231.266 92.4688 228.359 92.9375 225.109 92.9375C222.078 92.9375 219.453 92.625 217.234 92C215.016 91.375 213.172 90.4844 211.703 89.3281C210.266 88.2031 209.188 86.8438 208.469 85.25C207.781 83.6875 207.438 81.9375 207.438 80C207.438 78.0938 207.766 76.375 208.422 74.8438C209.078 73.3125 209.938 72 211 70.9062C212.062 69.8438 213.25 69.0312 214.562 68.4688C215.906 67.9062 217.266 67.625 218.641 67.625C220.422 67.625 222.094 68.125 223.656 69.125C225.219 70.125 226.406 71.7031 227.219 73.8594C226.844 73.6094 226.391 73.4844 225.859 73.4844C225.141 73.4844 224.469 73.7656 223.844 74.3281C223.219 74.9219 222.906 75.625 222.906 76.4375C222.906 76.9062 222.984 77.2969 223.141 77.6094C223.328 77.9531 223.562 78.2188 223.844 78.4062C224.125 78.5938 224.422 78.7188 224.734 78.7812C225.078 78.875 225.391 78.9219 225.672 78.9219C226.016 78.9219 226.484 78.8594 227.078 78.7344C227.703 78.6406 228.375 78.3438 229.094 77.8438C229.812 77.3438 230.531 76.5781 231.25 75.5469C231.969 74.5156 232.625 73.0938 233.219 71.2812C233.812 69.4688 234.281 67.1719 234.625 64.3906C235 61.6094 235.188 58.2344 235.188 54.2656C234.562 57.0469 233.781 59.2344 232.844 60.8281C231.906 62.4219 230.906 63.625 229.844 64.4375C228.781 65.2188 227.688 65.7031 226.562 65.8906C225.469 66.0781 224.438 66.1719 223.469 66.1719C222.719 66.1719 221.766 66.0469 220.609 65.7969C219.453 65.5156 218.219 65.0469 216.906 64.3906C215.625 63.7031 214.312 62.7812 212.969 61.625C211.656 60.4375 210.469 58.9531 209.406 57.1719C208.344 55.3594 207.469 53.2031 206.781 50.7031C206.125 48.1719 205.797 45.2031 205.797 41.7969C205.797 36.5469 206.328 32.1094 207.391 28.4844C208.484 24.8594 209.875 21.9375 211.562 19.7188C213.281 17.4688 215.172 15.8594 217.234 14.8906C219.297 13.8906 221.312 13.3906 223.281 13.3906C224.688 13.3906 225.969 13.625 227.125 14.0938C228.281 14.5312 229.328 15.125 230.266 15.875C231.203 16.625 232.031 17.4688 232.75 18.4062C233.469 19.3125 234.109 20.2344 234.672 21.1719C234.484 19.7969 234.25 18.4219 233.969 17.0469C233.719 15.6719 233.422 14.2812 233.078 12.875C233.859 13.2188 234.828 13.5312 235.984 13.8125C236.984 14.0625 238.234 14.2812 239.734 14.4688C241.234 14.625 243.047 14.7031 245.172 14.7031C247.672 14.7031 250.609 14.5156 253.984 14.1406ZM234.016 37.6719C234.016 36.7969 233.953 35.75 233.828 34.5312C233.703 33.2812 233.469 32.0938 233.125 30.9688C232.781 29.8125 232.297 28.8281 231.672 28.0156C231.078 27.2031 230.297 26.7969 229.328 26.7969C228.609 26.7969 227.953 27.2188 227.359 28.0625C226.766 28.875 226.25 29.875 225.812 31.0625C225.406 32.2188 225.078 33.4219 224.828 34.6719C224.609 35.9219 224.5 36.9844 224.5 37.8594C224.5 39.3594 224.578 40.8906 224.734 42.4531C224.891 44.0156 225.141 45.4375 225.484 46.7188C225.859 47.9688 226.312 49 226.844 49.8125C227.406 50.625 228.062 51.0312 228.812 51.0312C229.625 51.0312 230.344 50.8438 230.969 50.4688C231.625 50.0625 232.172 49.5312 232.609 48.875C233.078 48.1875 233.422 47.4062 233.641 46.5312C233.891 45.6562 234.016 44.7188 234.016 43.7188V37.6719Z" fill="white"/>
</svg>
