<svg width="178" height="80" viewBox="0 0 178 80" fill="none" xmlns="http://www.w3.org/2000/svg">
<path d="M20.408 20.512L20.6 21.76C20.6 21.952 20.376 23.104 19.928 25.216C19.48 27.264 19.256 29.12 19.256 30.784C19.256 31.04 19.64 31.552 20.408 32.32C21.176 33.024 21.56 33.76 21.56 34.528C21.56 35.232 21.048 36.032 20.024 36.928C19 37.824 18.488 38.496 18.488 38.944C18.488 39.392 18.68 39.84 19.064 40.288C19.512 40.736 19.928 41.088 20.312 41.344C20.696 41.6 20.888 41.792 20.888 41.92C20.696 42.688 20.6 44.256 20.6 46.624V51.232C20.6 53.28 20.536 54.656 20.408 55.36V55.552C20.408 56.832 21.272 58.56 23 60.736C24.728 62.848 26.552 63.904 28.472 63.904C29.432 63.904 31 62.496 33.176 59.68C35.352 56.864 36.44 54.176 36.44 51.616C36.44 51.296 36.824 51.136 37.592 51.136H37.88C38.328 51.2 39.512 51.776 41.432 52.864C43.416 53.952 44.664 54.784 45.176 55.36C45.752 55.872 46.488 56.96 47.384 58.624C48.344 60.224 48.824 61.12 48.824 61.312C48.824 63.68 47.128 66.752 43.736 70.528C40.344 74.304 38.104 76.192 37.016 76.192C36.888 76.192 36.536 75.936 35.96 75.424C35.384 74.848 34.904 74.56 34.52 74.56C34.136 74.56 33.24 74.848 31.832 75.424C27.736 77.28 23.896 78.208 20.312 78.208C18.968 78.208 16.536 77.152 13.016 75.04C9.56 72.928 7.352 71.104 6.392 69.568C4.664 66.816 3.256 63.936 2.168 60.928C1.08 57.856 0.536 55.904 0.536 55.072L1.976 53.728C2.936 52.832 3.416 51.968 3.416 51.136C3.416 50.304 2.968 49.504 2.072 48.736C1.24 47.904 0.824 47.392 0.824 47.2C0.888 47.008 0.92 46.464 0.92 45.568L0.44 36.352C0.44 34.752 0.792 32.544 1.496 29.728C2.2 26.848 2.552 25.056 2.552 24.352C2.552 23.648 2.36 22.816 1.976 21.856C1.656 20.896 1.496 20.384 1.496 20.32C1.496 18.72 3.832 15.84 8.504 11.68C13.176 7.52 16.856 4.96 19.544 3.99999C24.408 2.592 30.584 1.888 38.072 1.888C39.8 1.888 41.656 3.04 43.64 5.34399C45.688 7.584 46.712 9.024 46.712 9.664C46.712 9.72799 46.392 10.208 45.752 11.104C45.112 12 44.792 12.8 44.792 13.504C44.792 14.144 45.304 14.848 46.328 15.616C47.416 16.384 47.96 16.928 47.96 17.248C48.024 17.568 48.056 18.048 48.056 18.688C48.056 21.184 47.736 22.944 47.096 23.968C46.456 24.928 45.368 26.208 43.832 27.808C42.296 29.344 41.24 30.208 40.664 30.4C37.976 31.296 34.872 31.744 31.352 31.744C31.096 31.744 30.776 31.52 30.392 31.072C30.008 30.624 29.816 30.304 29.816 30.112C29.816 29.92 29.848 29.824 29.912 29.824C30.936 28.736 31.448 26.016 31.448 21.664C31.448 20.96 31.16 20.32 30.584 19.744C30.072 19.104 29.816 18.656 29.816 18.4V18.208L29.912 17.536C29.912 16.512 29.72 15.52 29.336 14.56C28.952 13.6 28.344 13.12 27.512 13.12C25.976 13.12 24.408 13.984 22.808 15.712C21.208 17.376 20.408 18.976 20.408 20.512ZM52.9228 13.12L52.5388 5.92C52.5388 5.536 54.1068 4.73599 57.2428 3.51999C60.4428 2.24 62.2668 1.6 62.7148 1.6L65.1148 2.65599C65.4988 2.65599 66.0108 2.65599 66.6508 2.65599C67.3548 2.592 68.4108 2.528 69.8188 2.464C73.0188 2.4 74.5868 2.336 74.5228 2.272C79.0668 3.168 81.3388 4.032 81.3388 4.86399C81.3388 6.592 81.5308 9.024 81.9148 12.16C82.2988 15.232 82.8748 17.184 83.6428 18.016C83.6428 18.144 83.2268 18.752 82.3948 19.84C81.5628 20.928 81.1468 21.952 81.1468 22.912C81.1468 23.232 81.5948 23.584 82.4908 23.968C83.3868 24.352 83.8348 24.64 83.8348 24.832C84.4748 31.296 84.9548 34.816 85.2748 35.392C85.6588 35.968 86.3308 36.256 87.2908 36.256C87.5468 36.256 87.7708 35.872 87.9628 35.104C88.6668 32.16 89.2108 30.496 89.5948 30.112C90.2988 23.072 90.8748 19.296 91.3228 18.784C93.2428 17.76 94.2028 16.736 94.2028 15.712C94.2028 15.136 93.8828 14.528 93.2428 13.888C92.6028 13.184 92.2828 12.768 92.2828 12.64C92.2828 12.448 92.6668 11.168 93.4348 8.8C94.2028 6.368 94.7468 4.992 95.0668 4.672C95.4508 4.288 97.9148 3.552 102.459 2.464C107.003 1.312 109.851 0.735996 111.003 0.735996C118.875 1.056 122.811 1.76 122.811 2.848C121.595 7.52 120.987 10.208 120.987 10.912C120.987 11.616 121.019 11.968 121.083 11.968C121.659 11.968 121.947 15.328 121.947 22.048V23.776C121.947 23.904 121.691 24.096 121.179 24.352C119.579 25.312 118.779 26.496 118.779 27.904C118.779 27.968 119.259 28.384 120.219 29.152C121.179 29.856 121.659 30.4 121.659 30.784V30.88C121.019 33.824 120.699 39.68 120.699 48.448L120.795 54.592C121.115 55.296 121.275 56.48 121.275 58.144V59.2C121.275 59.392 120.827 59.936 119.931 60.832C119.099 61.728 118.683 62.368 118.683 62.752C118.683 63.584 119.611 64.128 121.467 64.384C121.467 65.856 122.139 68.224 123.483 71.488L124.155 73.12C124.155 73.696 122.299 74.656 118.587 76C114.939 77.344 112.027 78.016 109.851 78.016C109.083 78.016 107.419 77.472 104.859 76.384C102.299 75.36 101.019 74.592 101.019 74.08L102.555 65.824L102.171 53.728C102.171 53.664 102.555 53.216 103.323 52.384C104.155 51.488 104.571 50.752 104.571 50.176C104.571 49.536 104.379 49.024 103.995 48.64C103.675 48.192 103.323 47.904 102.939 47.776C102.555 47.584 102.363 47.456 102.363 47.392C102.363 46.624 102.747 45.344 103.515 43.552C103.515 41.888 103.387 39.008 103.131 34.912C102.939 30.752 102.715 28.672 102.459 28.672L100.827 29.44C100.635 29.632 99.7708 32.96 98.2348 39.424C96.6988 45.824 95.9308 49.184 95.9308 49.504C95.9308 49.824 96.0908 50.368 96.4108 51.136C96.7308 51.904 96.8908 52.448 96.8908 52.768C96.8908 53.024 96.6988 53.344 96.3148 53.728C95.9948 54.048 95.5788 54.4 95.0668 54.784C94.5548 55.168 94.2348 55.424 94.1068 55.552L93.6268 57.088C93.6268 57.536 93.9148 58.08 94.4908 58.72C95.0668 59.296 95.3548 59.68 95.3548 59.872C95.3548 60 94.8748 60.736 93.9148 62.08C93.0188 63.36 91.7388 64.704 90.0748 66.112C88.4748 67.52 87.0348 68.224 85.7548 68.224C84.5388 68.224 82.3948 67.776 79.3228 66.88C76.2508 65.92 74.7148 65.184 74.7148 64.672L73.8508 60.16C73.8508 60.096 74.0748 59.968 74.5228 59.776C75.9308 59.2 76.6348 58.4 76.6348 57.376C76.6348 56.672 75.9628 56.192 74.6188 55.936C73.3388 55.68 72.6988 55.36 72.6988 54.976C72.6988 50.752 71.5788 44.064 69.3388 34.912L68.2828 30.4C68.2188 30.4 68.1868 30.4 68.1868 30.4C68.1868 30.336 68.1548 30.304 68.0908 30.304L66.9388 30.88C66.4908 31.328 66.2668 34.496 66.2668 40.384L66.5548 54.496C67.2588 56.672 67.6108 58.112 67.6108 58.816C67.6108 59.456 67.5788 59.808 67.5148 59.872C65.9788 60.96 65.2108 62.112 65.2108 63.328V63.712C65.2108 64.032 65.4668 64.352 65.9788 64.672C66.5548 64.928 66.9068 65.12 67.0348 65.248C67.1628 65.504 67.2268 65.824 67.2268 66.208L67.1308 68.608L67.6108 72.448C67.6108 73.28 67.4188 73.728 67.0348 73.792L63.3868 75.424C60.8908 76.512 59.3228 77.056 58.6828 77.056C58.0428 77.056 56.4428 76.608 53.8828 75.712C51.3868 74.816 50.1388 74.112 50.1388 73.6C50.1388 73.472 50.3628 72.576 50.8108 70.912C52.2188 65.664 52.9228 61.056 52.9228 57.088C52.9228 57.024 52.5708 56.8 51.8668 56.416C51.1628 56.032 50.8108 55.744 50.8108 55.552L52.8268 45.472C52.6348 44.384 52.5388 39.2 52.5388 29.92V25.216C52.5388 25.152 52.7628 24.992 53.2108 24.736C54.4268 23.84 55.0348 23.072 55.0348 22.432C55.0348 21.728 54.9388 21.184 54.7468 20.8C54.5548 20.416 54.2988 20.096 53.9788 19.84C53.7228 19.584 53.4348 19.36 53.1148 19.168C52.8588 18.976 52.6348 18.848 52.4428 18.784C52.3148 18.656 52.3468 18.304 52.5388 17.728C52.7948 17.152 52.9228 15.616 52.9228 13.12ZM148.065 25.6L146.337 29.536C146.337 29.92 146.497 30.432 146.817 31.072C147.137 31.648 147.425 31.936 147.681 31.936C149.665 31.296 150.657 30.752 150.657 30.304C150.657 30.176 151.393 29.696 152.865 28.864C154.337 28.032 155.073 27.104 155.073 26.08C155.073 25.824 154.945 25.472 154.689 25.024C154.433 24.576 154.305 24.096 154.305 23.584C154.305 23.072 154.497 22.304 154.881 21.28L155.361 19.84C155.361 18.944 154.913 17.856 154.017 16.576C153.121 15.296 152.289 14.656 151.521 14.656C150.753 14.656 149.921 15.008 149.025 15.712C148.129 16.352 147.649 16.832 147.585 17.152V17.344L148.065 25.6ZM147.873 53.92L147.489 59.296C147.489 60.512 147.649 61.6 147.969 62.56C148.353 63.52 148.737 64 149.121 64C149.633 64 150.561 63.84 151.905 63.52C153.313 63.136 154.241 62.752 154.689 62.368C155.329 61.728 156.001 60.64 156.705 59.104C157.409 57.504 157.761 56.416 157.761 55.84C157.761 55.2 157.249 54.272 156.225 53.056C155.201 51.84 154.689 51.072 154.689 50.752L155.457 47.488C155.457 46.784 154.881 46.112 153.729 45.472C152.641 44.768 151.809 44.416 151.233 44.416C150.657 44.416 149.889 45.088 148.929 46.432C148.033 47.712 147.585 48.544 147.585 48.928L147.873 53.056V53.92ZM173.505 62.56C172.097 63.392 171.393 64.192 171.393 64.96C171.393 65.664 171.841 66.656 172.737 67.936C172.737 68.384 171.969 69.312 170.433 70.72C168.961 72.128 167.649 73.248 166.497 74.08C165.345 74.848 163.489 75.776 160.929 76.864C158.433 77.952 156.545 78.496 155.265 78.496C154.049 78.496 152.033 77.984 149.217 76.96C146.401 76 144.897 75.52 144.705 75.52C144.513 75.52 143.873 76.096 142.785 77.248C141.697 78.464 140.833 79.072 140.193 79.072C138.017 79.072 135.233 78.048 131.841 76C128.513 73.952 126.849 72.544 126.849 71.776C126.849 71.648 127.073 71.072 127.521 70.048C128.801 67.104 129.441 63.136 129.441 58.144L129.249 53.824C129.249 53.76 129.473 53.632 129.921 53.44C131.393 52.864 132.129 52.064 132.129 51.04C132.129 50.016 131.585 49.056 130.497 48.16C129.473 47.264 128.961 46.752 128.961 46.624V46.528C129.409 45.12 129.633 42.688 129.633 39.232L129.345 27.04V25.696C129.345 25.312 129.089 24.736 128.577 23.968C128.129 23.2 127.905 22.592 127.905 22.144C127.905 21.632 128.321 20.832 129.153 19.744C129.985 18.656 130.401 17.76 130.401 17.056C130.401 16.352 129.633 14.752 128.097 12.256C126.625 9.76 125.889 8.48 125.889 8.41599C125.889 7.584 127.169 6.432 129.729 4.96C132.289 3.424 134.241 2.65599 135.585 2.65599C138.401 1.248 140.545 0.543999 142.017 0.543999C142.593 0.543999 143.489 1.632 144.705 3.808C145.985 5.984 146.721 7.07199 146.913 7.07199C147.105 7.07199 148.001 6.592 149.601 5.632C154.273 2.816 157.697 1.408 159.873 1.408C162.113 1.408 164.833 2.4 168.033 4.384C171.233 6.304 172.833 7.84 172.833 8.992L171.585 10.24C170.753 11.072 170.337 11.904 170.337 12.736C170.337 13.44 170.945 13.952 172.161 14.272C173.441 14.528 174.081 14.72 174.081 14.848C174.081 20.928 172.609 25.44 169.665 28.384C168.961 29.088 167.873 29.92 166.401 30.88C164.993 31.84 163.873 32.736 163.041 33.568C162.273 34.336 161.889 35.232 161.889 36.256C162.145 37.216 162.465 37.696 162.849 37.696C162.977 37.696 163.713 37.344 165.057 36.64C166.465 35.872 167.681 35.488 168.705 35.488C169.089 35.488 169.921 36.256 171.201 37.792C172.545 39.264 173.857 41.408 175.137 44.224C176.481 47.04 177.153 49.44 177.153 51.424C177.153 53.408 176.929 55.456 176.481 57.568C176.033 59.68 175.809 60.896 175.809 61.216C175.809 61.472 175.649 61.696 175.329 61.888C174.561 62.336 173.953 62.56 173.505 62.56Z" fill="white"/>
</svg>
