<svg width="559" height="79" viewBox="0 0 559 79" fill="none" xmlns="http://www.w3.org/2000/svg">
<path d="M19.5355 62.0839C16.7484 62.0839 14.3742 61.8 12.4129 61.2323C10.5032 60.6645 8.92903 60.0968 7.69032 59.529C6.45161 58.9613 5.36774 58.6774 4.43871 58.6774C3.66452 58.6774 3.04516 58.9613 2.58065 59.529C2.16774 60.0968 1.85806 60.8968 1.65161 61.929H0.72258C0.825806 60.8452 0.903226 59.529 0.954839 57.9806C1.00645 56.3806 1.03226 54.3161 1.03226 51.7871C1.08387 49.2581 1.10968 46.0581 1.10968 42.1871H2.03871C2.4 48.0194 4.02581 52.6387 6.91613 56.0452C9.80645 59.4 13.6 61.0774 18.2968 61.0774C21.8065 61.0774 24.6452 60.071 26.8129 58.0581C28.9806 55.9935 30.0645 53.2581 30.0645 49.8516C30.0645 47.8387 29.6258 46.0581 28.7484 44.5097C27.871 42.9097 26.4774 41.4387 24.5677 40.0968C22.7097 38.7548 20.2323 37.4387 17.1355 36.1484C13.5742 34.6516 10.6581 33.0774 8.3871 31.4258C6.11613 29.7226 4.43871 27.8645 3.35484 25.8516C2.32258 23.7871 1.80645 21.5161 1.80645 19.0387C1.80645 16.2 2.42581 13.7484 3.66452 11.6839C4.95484 9.56774 6.7871 7.94193 9.16129 6.80645C11.5355 5.67097 14.3226 5.10323 17.5226 5.10323C20.0516 5.10323 22.1419 5.36129 23.7935 5.87742C25.4452 6.39355 26.8387 6.93548 27.9742 7.50323C29.1097 8.01935 30.1161 8.27742 30.9935 8.27742C31.7677 8.27742 32.3613 8.01935 32.7742 7.50323C33.2387 6.9871 33.6 6.23871 33.8581 5.25807H34.7097C34.6065 6.29032 34.529 7.50323 34.4774 8.89677C34.4258 10.2387 34.3742 11.9419 34.3226 14.0065C34.3226 16.071 34.3226 18.729 34.3226 21.9806H33.3935C33.0323 17.2323 31.5097 13.4129 28.8258 10.5226C26.1419 7.58065 22.7097 6.10968 18.529 6.10968C15.2258 6.10968 12.6194 7.0129 10.7097 8.81935C8.85161 10.6258 7.92258 13 7.92258 15.9419C7.92258 17.8 8.3871 19.5032 9.31613 21.0516C10.2452 22.5484 11.7419 23.9935 13.8065 25.3871C15.871 26.7806 18.6323 28.2516 22.0903 29.8C27.6129 32.2258 31.5097 34.729 33.7806 37.3097C36.0516 39.8903 37.1871 43.0645 37.1871 46.8323C37.1871 51.5806 35.6129 55.3226 32.4645 58.0581C29.3161 60.7419 25.0065 62.0839 19.5355 62.0839ZM43.498 78.8839V77.9548C46.0786 77.9032 47.8593 77.4645 48.8399 76.6387C49.8206 75.8645 50.3109 74.4452 50.3109 72.3806V28.7935C50.3109 26.3677 49.7948 24.6645 48.7625 23.6839C47.7819 22.7032 46.027 22.1355 43.498 21.9806V21.129C44.3754 21.1806 45.2528 21.2323 46.1302 21.2839C47.0593 21.3355 47.9883 21.3613 48.9173 21.3613C52.3238 21.3613 55.2915 21 57.8206 20.2774V71.7613C57.8206 73.929 58.5173 75.4774 59.9109 76.4065C61.356 77.3871 63.7302 77.9032 67.0335 77.9548V78.8839C66.156 78.8323 65.0206 78.7806 63.627 78.729C62.2335 78.729 60.7109 78.7032 59.0593 78.6516C57.4077 78.6 55.8077 78.5742 54.2593 78.5742C51.9883 78.5742 49.8722 78.6 47.9109 78.6516C45.9496 78.7548 44.4786 78.8323 43.498 78.8839ZM68.5819 62.0839C65.7948 62.0839 63.369 61.5161 61.3044 60.3806C59.2399 59.1935 57.8722 57.671 57.2012 55.8129L57.4335 55.0387C58.0528 56.6387 59.1625 57.929 60.7625 58.9097C62.4141 59.8903 64.2722 60.3806 66.3367 60.3806C70.0528 60.3806 72.9173 58.7032 74.9302 55.3484C76.9948 51.9419 78.027 47.1161 78.027 40.871C78.027 34.9355 77.0722 30.3161 75.1625 27.0129C73.3044 23.7097 70.698 22.0581 67.3431 22.0581C65.2786 22.0581 63.2399 22.7548 61.227 24.1484C59.2657 25.5419 57.9238 27.3226 57.2012 29.4903L57.0464 28.7935C57.8722 26.2645 59.5238 24.1742 62.0012 22.5226C64.5302 20.871 67.3431 20.0452 70.4399 20.0452C73.6399 20.0452 76.4012 20.8968 78.7238 22.6C81.098 24.3032 82.9044 26.6774 84.1431 29.7226C85.4335 32.7677 86.0786 36.3548 86.0786 40.4839C86.0786 44.9226 85.3302 48.7677 83.8335 52.0194C82.3883 55.271 80.3496 57.7742 77.7173 59.529C75.1367 61.2323 72.0915 62.0839 68.5819 62.0839ZM113.962 62.0839C110.349 62.0839 107.175 61.2323 104.44 59.529C101.756 57.7742 99.6397 55.3484 98.0913 52.2516C96.5946 49.1032 95.8462 45.4129 95.8462 41.1806C95.8462 36.9484 96.5946 33.2581 98.0913 30.1097C99.6397 26.9097 101.807 24.4323 104.595 22.6774C107.433 20.9226 110.788 20.0452 114.659 20.0452C117.807 20.0452 120.543 20.6645 122.866 21.9032C125.24 23.1419 127.072 25.0258 128.362 27.5548C129.653 30.0839 130.298 33.2839 130.298 37.1548H100.878L100.801 36.3032H122.556C122.607 33.4129 122.324 30.8065 121.704 28.4839C121.136 26.1613 120.233 24.329 118.995 22.9871C117.756 21.5935 116.156 20.8968 114.195 20.8968C111.717 20.8968 109.472 22.1613 107.459 24.6903C105.498 27.1677 104.336 31.0903 103.975 36.4581L104.053 36.6129C104.001 37.2839 103.949 37.9806 103.898 38.7032C103.898 39.3742 103.898 40.071 103.898 40.7935C103.898 46.729 105.007 51.4 107.227 54.8065C109.498 58.1613 112.698 59.8387 116.827 59.8387C119.459 59.8387 121.885 59.1161 124.104 57.671C126.375 56.1742 128.156 53.9032 129.446 50.8581L130.298 51.3226C129.007 54.6774 126.917 57.3097 124.027 59.2194C121.188 61.129 117.833 62.0839 113.962 62.0839ZM157.197 62.0839C153.636 62.0839 150.488 61.2323 147.752 59.529C145.068 57.7742 142.952 55.3484 141.404 52.2516C139.907 49.1548 139.159 45.5419 139.159 41.4129C139.159 37.1806 139.959 33.4645 141.559 30.2645C143.159 27.0129 145.378 24.5097 148.217 22.7548C151.107 20.9484 154.41 20.0452 158.126 20.0452C160.759 20.0452 163.107 20.4581 165.172 21.2839C167.288 22.1097 168.965 23.2194 170.204 24.6129C171.443 26.0065 172.062 27.6065 172.062 29.4129C172.062 30.9097 171.597 32.1484 170.668 33.129C169.791 34.0581 168.63 34.5226 167.184 34.5226C166.049 34.5226 165.12 34.2129 164.397 33.5935C163.675 32.9226 163.314 32.0968 163.314 31.1161C163.314 30.1355 163.546 29.2581 164.01 28.4839C164.475 27.7097 164.939 27.0129 165.404 26.3935C165.868 25.7226 166.101 25.0258 166.101 24.3032C166.101 23.3742 165.481 22.6 164.243 21.9806C163.004 21.3613 161.455 21.0516 159.597 21.0516C155.675 21.0516 152.63 22.7548 150.462 26.1613C148.294 29.5161 147.21 34.2903 147.21 40.4839C147.21 46.6258 148.32 51.4 150.539 54.8065C152.759 58.1613 155.907 59.8387 159.984 59.8387C162.617 59.8387 164.965 59.0903 167.03 57.5935C169.146 56.0452 170.797 53.8 171.984 50.8581L172.759 51.3226C171.572 54.6774 169.584 57.3097 166.797 59.2194C164.062 61.129 160.862 62.0839 157.197 62.0839ZM178.196 61V60.071C180.725 60.0194 182.506 59.6323 183.538 58.9097C184.57 58.1355 185.086 56.6645 185.086 54.4968V28.7935C185.086 26.5226 184.596 24.871 183.616 23.8387C182.686 22.8065 180.88 22.1871 178.196 21.9806V21.129C179.074 21.1806 179.977 21.2323 180.906 21.2839C181.835 21.3355 182.764 21.3613 183.693 21.3613C185.345 21.3613 186.919 21.2839 188.416 21.129C189.912 20.9226 191.28 20.6387 192.519 20.2774V54.4968C192.519 56.6645 193.035 58.1355 194.067 58.9097C195.151 59.6323 196.932 60.0194 199.409 60.071V61C198.738 60.9484 197.809 60.9226 196.622 60.9226C195.486 60.871 194.222 60.8194 192.828 60.7677C191.486 60.7161 190.145 60.6903 188.803 60.6903C186.79 60.6903 184.777 60.7419 182.764 60.8452C180.751 60.8968 179.228 60.9484 178.196 61ZM188.725 11.3742C187.486 11.3742 186.403 10.9355 185.474 10.0581C184.545 9.18064 184.08 8.07097 184.08 6.72903C184.08 5.43871 184.545 4.35484 185.474 3.47742C186.403 2.54839 187.486 2.08387 188.725 2.08387C190.016 2.08387 191.125 2.54839 192.054 3.47742C192.983 4.35484 193.448 5.43871 193.448 6.72903C193.448 8.01935 192.983 9.12903 192.054 10.0581C191.125 10.9355 190.016 11.3742 188.725 11.3742ZM216.865 62.0839C213.51 62.0839 210.852 61.2323 208.891 59.529C206.93 57.7742 205.949 55.4258 205.949 52.4839C205.949 50.1613 206.517 48.2774 207.652 46.8323C208.788 45.3871 210.233 44.2258 211.988 43.3484C213.743 42.4194 215.601 41.671 217.562 41.1032C219.523 40.4839 221.381 39.9161 223.136 39.4C224.943 38.8323 226.388 38.1871 227.472 37.4645C228.607 36.6903 229.175 35.6839 229.175 34.4452V29.4903C229.175 26.7032 228.478 24.6129 227.085 23.2194C225.743 21.8258 223.73 21.129 221.046 21.129C218.981 21.129 217.227 21.4645 215.781 22.1355C214.336 22.7548 213.614 23.5548 213.614 24.5355C213.614 25.0516 213.794 25.6452 214.156 26.3161C214.569 26.9355 214.981 27.6323 215.394 28.4065C215.807 29.129 216.014 29.9032 216.014 30.729C216.014 31.7097 215.652 32.5097 214.93 33.129C214.207 33.6968 213.252 33.9806 212.065 33.9806C210.775 33.9806 209.717 33.5677 208.891 32.7419C208.117 31.9161 207.73 30.8323 207.73 29.4903C207.73 27.6839 208.427 26.0839 209.82 24.6903C211.214 23.2452 213.072 22.1097 215.394 21.2839C217.769 20.4581 220.375 20.0452 223.214 20.0452C226.414 20.0452 228.994 20.5613 230.956 21.5935C232.917 22.5742 234.362 24.1226 235.291 26.2387C236.22 28.3032 236.685 31.0129 236.685 34.3677V56.8194C236.685 58.0581 236.865 58.9613 237.227 59.529C237.64 60.0968 238.259 60.3806 239.085 60.3806C239.962 60.3806 240.788 60.1484 241.562 59.6839C242.388 59.2194 243.162 58.729 243.885 58.2129L244.272 58.9871C243.085 59.9677 241.898 60.7161 240.71 61.2323C239.523 61.8 238.052 62.0839 236.298 62.0839C231.549 62.0839 229.175 59.8129 229.175 55.271C227.73 57.5419 225.975 59.2452 223.91 60.3806C221.846 61.5161 219.498 62.0839 216.865 62.0839ZM220.736 58.9871C222.44 58.9871 223.988 58.6 225.381 57.8258C226.827 57 228.091 55.8129 229.175 54.2645V36.1484C228.814 37.129 228.065 37.9806 226.93 38.7032C225.794 39.3742 224.478 40.0452 222.981 40.7161C221.536 41.3871 220.091 42.1613 218.646 43.0387C217.252 43.9161 216.091 45.0258 215.162 46.3677C214.233 47.6581 213.769 49.3355 213.769 51.4C213.769 53.7742 214.362 55.6323 215.549 56.9742C216.788 58.3161 218.517 58.9871 220.736 58.9871ZM247.404 61V60.071C249.882 60.0194 251.636 59.6323 252.669 58.9097C253.701 58.1355 254.217 56.6645 254.217 54.4968V8.89677C254.217 6.57419 253.727 4.89678 252.746 3.86452C251.817 2.78065 250.036 2.1871 247.404 2.08387V1.15484C248.282 1.20645 249.185 1.25806 250.114 1.30968C251.043 1.36129 251.946 1.3871 252.824 1.3871C254.475 1.3871 256.049 1.30968 257.546 1.15484C259.095 0.948387 260.488 0.664516 261.727 0.303226V54.4968C261.727 56.6645 262.243 58.1355 263.275 58.9097C264.307 59.6323 266.062 60.0194 268.54 60.071V61C267.869 60.9484 266.966 60.9226 265.83 60.9226C264.695 60.871 263.43 60.8194 262.036 60.7677C260.695 60.7161 259.353 60.6903 258.011 60.6903C255.998 60.6903 253.959 60.7419 251.895 60.8452C249.882 60.8968 248.385 60.9484 247.404 61ZM294.372 61V60.1484C296.54 59.9935 298.114 59.7613 299.095 59.4516C300.127 59.0903 300.798 58.4452 301.108 57.5161C301.469 56.5871 301.65 55.2452 301.65 53.4903V13.6968C301.65 11.8903 301.469 10.5484 301.108 9.67097C300.798 8.74194 300.127 8.09677 299.095 7.73548C298.114 7.37419 296.54 7.14194 294.372 7.03871V6.1871C295.559 6.23871 297.108 6.29032 299.018 6.34194C300.927 6.39355 303.121 6.41936 305.598 6.41936C307.972 6.41936 310.114 6.39355 312.024 6.34194C313.985 6.29032 315.559 6.23871 316.747 6.1871V7.03871C314.682 7.14194 313.108 7.37419 312.024 7.73548C310.992 8.09677 310.295 8.74194 309.934 9.67097C309.624 10.5484 309.469 11.8903 309.469 13.6968V53.4903C309.469 55.2452 309.624 56.5871 309.934 57.5161C310.295 58.4452 310.992 59.0903 312.024 59.4516C313.108 59.7613 314.682 59.9935 316.747 60.1484V61C315.559 60.9484 313.985 60.8968 312.024 60.8452C310.114 60.7935 307.972 60.7677 305.598 60.7677C303.121 60.7677 300.927 60.7935 299.018 60.8452C297.108 60.8968 295.559 60.9484 294.372 61ZM349.171 61V60.071C351.287 59.9677 352.732 59.529 353.506 58.7548C354.28 57.9806 354.668 56.5613 354.668 54.4968V33.5935C354.668 29.7742 353.997 26.9097 352.655 25C351.313 23.0387 349.3 22.0581 346.616 22.0581C344.655 22.0581 342.797 22.6 341.042 23.6839C339.287 24.7677 337.79 26.3161 336.551 28.329V27.3226C337.893 25.0516 339.726 23.271 342.048 21.9806C344.371 20.6903 346.926 20.0452 349.713 20.0452C353.739 20.0452 356.809 21.3613 358.926 23.9935C361.093 26.5742 362.177 30.2903 362.177 35.1419V54.4968C362.177 56.5613 362.668 57.9806 363.648 58.7548C364.629 59.529 366.409 59.9677 368.99 60.071V61C368.371 60.9484 367.468 60.9226 366.28 60.9226C365.093 60.871 363.829 60.8194 362.487 60.7677C361.145 60.7161 359.803 60.6903 358.461 60.6903C356.655 60.6903 354.874 60.7419 353.119 60.8452C351.364 60.8968 350.048 60.9484 349.171 61ZM322.384 61V60.071C324.964 59.9677 326.745 59.529 327.726 58.7548C328.758 57.9806 329.274 56.5613 329.274 54.4968V28.7935C329.274 26.3677 328.758 24.6903 327.726 23.7613C326.693 22.7806 324.913 22.1871 322.384 21.9806V21.129C323.313 21.1806 324.216 21.2323 325.093 21.2839C326.022 21.3355 326.951 21.3613 327.88 21.3613C329.48 21.3613 331.003 21.2839 332.448 21.129C333.945 20.9226 335.364 20.6387 336.706 20.2774V54.4968C336.706 56.5613 337.093 57.9806 337.868 58.7548C338.693 59.529 340.139 59.9677 342.203 60.071V61C340.964 60.9484 339.545 60.8968 337.945 60.8452C336.345 60.7419 334.668 60.6903 332.913 60.6903C331.158 60.6903 329.351 60.7419 327.493 60.8452C325.687 60.8968 323.984 60.9484 322.384 61ZM389.926 62.0065L374.597 26.5484C373.926 25.0516 373.074 23.9419 372.042 23.2194C371.061 22.4968 369.849 22.1097 368.403 22.0581V21.129C369.849 21.2323 371.216 21.3097 372.507 21.3613C373.849 21.3613 375.371 21.3613 377.074 21.3613C379.242 21.3613 381.178 21.3613 382.881 21.3613C384.584 21.3097 386.236 21.2323 387.836 21.129V22.0581C385.152 22.2129 383.5 22.729 382.881 23.6065C382.261 24.4839 382.416 26.0065 383.345 28.1742L393.874 52.6387L393.255 53.4903L400.223 35.9935C401.41 33.0516 402.029 30.5742 402.081 28.5613C402.184 26.5484 401.72 25 400.687 23.9161C399.707 22.8323 398.184 22.2129 396.12 22.0581V21.129C397.461 21.1806 398.571 21.2323 399.449 21.2839C400.378 21.3355 401.229 21.3613 402.003 21.3613C402.778 21.3613 403.578 21.3613 404.403 21.3613C405.745 21.3613 406.958 21.3355 408.042 21.2839C409.178 21.2323 410.21 21.1806 411.139 21.129V22.0581C409.436 22.2645 407.939 23.1419 406.649 24.6903C405.358 26.2387 404.016 28.6903 402.623 32.0452L390.778 62.0065H389.926ZM414.54 61V60.071C417.069 60.0194 418.85 59.6323 419.882 58.9097C420.914 58.1355 421.43 56.6645 421.43 54.4968V28.7935C421.43 26.5226 420.94 24.871 419.959 23.8387C419.03 22.8065 417.224 22.1871 414.54 21.9806V21.129C415.417 21.1806 416.321 21.2323 417.25 21.2839C418.179 21.3355 419.108 21.3613 420.037 21.3613C421.688 21.3613 423.262 21.2839 424.759 21.129C426.256 20.9226 427.624 20.6387 428.862 20.2774V54.4968C428.862 56.6645 429.379 58.1355 430.411 58.9097C431.495 59.6323 433.275 60.0194 435.753 60.071V61C435.082 60.9484 434.153 60.9226 432.966 60.9226C431.83 60.871 430.566 60.8194 429.172 60.7677C427.83 60.7161 426.488 60.6903 425.146 60.6903C423.133 60.6903 421.121 60.7419 419.108 60.8452C417.095 60.8968 415.572 60.9484 414.54 61ZM425.069 11.3742C423.83 11.3742 422.746 10.9355 421.817 10.0581C420.888 9.18064 420.424 8.07097 420.424 6.72903C420.424 5.43871 420.888 4.35484 421.817 3.47742C422.746 2.54839 423.83 2.08387 425.069 2.08387C426.359 2.08387 427.469 2.54839 428.398 3.47742C429.327 4.35484 429.792 5.43871 429.792 6.72903C429.792 8.01935 429.327 9.12903 428.398 10.0581C427.469 10.9355 426.359 11.3742 425.069 11.3742ZM457.553 62.0839C453.785 62.0839 450.972 60.9742 449.114 58.7548C447.308 56.5355 446.405 53.0516 446.405 48.3032V22.0581H438.198V21.2065H446.405V9.36129C447.953 9.30968 449.321 9.20645 450.508 9.05161C451.747 8.84516 452.882 8.5871 453.914 8.27742V21.2065H466.301V22.0581H453.914V52.6387C453.914 55.1677 454.379 57.0516 455.308 58.2903C456.289 59.529 457.759 60.1484 459.721 60.1484C461.734 60.1484 463.411 59.4 464.753 57.9032C466.095 56.3548 467.101 54.1613 467.772 51.3226L468.469 51.5548C467.695 55.1161 466.43 57.7742 464.676 59.529C462.921 61.2323 460.547 62.0839 457.553 62.0839ZM490.65 62.0839C487.037 62.0839 483.863 61.2323 481.127 59.529C478.443 57.7742 476.327 55.3484 474.779 52.2516C473.282 49.1032 472.534 45.4129 472.534 41.1806C472.534 36.9484 473.282 33.2581 474.779 30.1097C476.327 26.9097 478.495 24.4323 481.282 22.6774C484.121 20.9226 487.476 20.0452 491.347 20.0452C494.495 20.0452 497.23 20.6645 499.553 21.9032C501.927 23.1419 503.759 25.0258 505.05 27.5548C506.34 30.0839 506.985 33.2839 506.985 37.1548H477.566L477.489 36.3032H499.243C499.295 33.4129 499.011 30.8065 498.392 28.4839C497.824 26.1613 496.921 24.329 495.682 22.9871C494.443 21.5935 492.843 20.8968 490.882 20.8968C488.405 20.8968 486.159 22.1613 484.147 24.6903C482.185 27.1677 481.024 31.0903 480.663 36.4581L480.74 36.6129C480.689 37.2839 480.637 37.9806 480.585 38.7032C480.585 39.3742 480.585 40.071 480.585 40.7935C480.585 46.729 481.695 51.4 483.914 54.8065C486.185 58.1613 489.385 59.8387 493.514 59.8387C496.147 59.8387 498.572 59.1161 500.792 57.671C503.063 56.1742 504.843 53.9032 506.134 50.8581L506.985 51.3226C505.695 54.6774 503.605 57.3097 500.714 59.2194C497.876 61.129 494.521 62.0839 490.65 62.0839ZM544.292 61.8516V8.89677C544.292 6.52258 543.801 4.81936 542.821 3.7871C541.84 2.75484 540.059 2.1871 537.479 2.08387V1.15484C538.408 1.20645 539.311 1.25806 540.189 1.30968C541.118 1.36129 542.047 1.3871 542.976 1.3871C544.576 1.3871 546.124 1.30968 547.621 1.15484C549.118 0.948387 550.511 0.664516 551.801 0.303226V53.2581C551.801 55.5806 552.292 57.2839 553.272 58.3677C554.253 59.4 556.034 59.9677 558.614 60.071V61C557.737 60.9484 556.834 60.9226 555.905 60.9226C554.976 60.871 554.072 60.8452 553.195 60.8452C551.543 60.8452 549.969 60.9226 548.472 61.0774C546.976 61.2323 545.582 61.4903 544.292 61.8516ZM532.292 62.0839C528.989 62.0839 526.098 61.2581 523.621 59.6065C521.195 57.9032 519.311 55.5032 517.969 52.4065C516.679 49.2581 516.034 45.5419 516.034 41.2581C516.034 36.871 516.756 33.1032 518.201 29.9548C519.647 26.7548 521.711 24.3032 524.395 22.6C527.079 20.8968 530.253 20.0452 533.918 20.0452C536.911 20.0452 539.389 20.7419 541.35 22.1355C543.363 23.4774 544.576 24.9226 544.989 26.471L544.756 27.1677C544.292 25.7226 543.259 24.4581 541.659 23.3742C540.059 22.2387 538.124 21.671 535.853 21.671C532.085 21.671 529.169 23.3484 527.105 26.7032C525.092 30.0581 524.085 34.8065 524.085 40.9484C524.085 46.9871 525.066 51.6839 527.027 55.0387C529.04 58.3935 531.827 60.071 535.389 60.071C537.556 60.071 539.492 59.3226 541.195 57.8258C542.898 56.2774 544.163 54.1871 544.989 51.5548L545.143 52.329C544.266 55.4774 542.718 57.9032 540.498 59.6065C538.33 61.2581 535.595 62.0839 532.292 62.0839Z" fill="white"/>
</svg>
